<?xml version="1.0" encoding="utf-8"?>
<!-- Generator: Adobe Illustrator 23.0.3, SVG Export Plug-In . SVG Version: 6.00 Build 0)  -->
<svg version="1.1" id="Calque_1" xmlns="http://www.w3.org/2000/svg" xmlns:xlink="http://www.w3.org/1999/xlink" x="0px" y="0px"
	 width="600px" height="475.3052368px" viewBox="0 0 600 475.3052368" style="enable-background:new 0 0 600 475.3052368;"
	 xml:space="preserve">
<path style="fill:#F19533;" d="M63.1667633,311.026123l-2.5709038-2.8745728l-2.2382126-3.1564026
	c-5.8111649-8.5144348-12.360054-16.4322205-16.8042831-25.692749
	C31.1266537,261.7612,24.7606049,242.2250366,20.9479713,222.6693878
	c-3.7883854-19.6355438-4.0960369-39.7655487-1.355011-59.3422546c0.7146702-4.8886108,1.6944599-9.7390747,2.5104885-14.5815735
	c1.2361641-4.7769165,2.2139664-9.5967712,3.6448956-14.2846527c1.4062862-4.6990204,2.8590775-9.3586807,4.6151466-13.8784332
	c1.6304646-4.4386673,3.6953773-9.1977005,5.5047073-12.7448196l0.2126541-0.4145737
	c0.2023163-0.3994675,0.3867455-0.8136368,0.5505104-1.2409286c2.582428-6.7305374-0.7802544-14.2798843-7.510397-16.8623199
	c-6.7305374-2.582428-14.2798853,0.7802582-16.8623161,7.5107956c-2.2859106,5.9574356-3.766923,10.9438324-5.1819534,16.3948746
	c-1.4428544,5.3330002-2.5255914,10.7089233-3.5308197,16.0800705c-1.0310645,5.3656006-1.5744205,10.8059082-2.3546748,16.1790619
	c-0.3597199,5.4399109-0.8585579,10.8468323-1.07121,16.2617188c-0.7381214,21.6773987,1.9226134,43.4311066,8.1626596,63.960968
	c6.2575359,20.4507751,15.1440086,40.1252594,27.7572575,57.060318c5.5484314,8.9763184,13.104538,16.4135742,19.8434219,24.3445129
	l2.5812378,2.9302063l2.9012108,2.6329041l5.7900963,5.2519226l11.5269394,10.446991l-10.3615265-11.584198L63.1667633,311.026123z
	 M449.2399902,68.4807205c-3.3213196,0.3907242-6.6426697,0.7814484-10.0939941,1.106987
	c-5.9264526,0.5858841-11.7872925,1.3673325-17.518158,2.409523
	c-97.6848145,16.345993-161.0499878,81.5991745-161.0499878,81.5991745h36.7947693
	c0,0,33.8641663-55.4847031,120.6735229-62.3225555c-10.0292358,38.0969238-42.8511963,106.6714478-143.5318298,215.1669464
	c4.0376282-3.190979,132.5259705-105.7600403,168.7992554-216.0135803C535.9190063,87.171051,596.2231445,24.1966209,600,20.1590137
	C596.4834595,22.5685425,546.4037476,56.6930389,449.2399902,68.4807205z"/>
<path style="fill:#085694;" d="M73.7790985,2.6992846C60.860981-4.7590404,41.9746933,3.7689047,31.5952835,21.7465515
	s-8.3212547,38.5973473,4.5968628,46.0556717c12.9177208,7.4583282,31.8040085-1.0696182,42.1834183-19.0472679
	S86.6972122,10.157609,73.7790985,2.6992846z M168.4402771,318.2944641
	c-7.4944916-6.3421936-15.5939484-12.2217407-22.7823944-19.0027466
	c-6.7297363-7.1598206-14.4436493-13.6792908-20.1522598-21.7672424c-3.0140915-3.9191589-6.2881393-7.7055664-9.1404648-11.7669983
	l-7.8995209-12.6478424c-2.8797531-4.1230621-4.7200851-8.7580872-6.9714127-13.2237701
	c-2.1603088-4.5066376-4.543602-8.9568329-6.0349503-13.7488556c-7.5036392-18.6517792-11.5567474-38.7901306-12.6720734-59.1959839
	c-1.1165237-20.4058533,0.680481-41.2223129,6.1891708-61.2457886c-7.5779724,19.3604813-11.6505585,40.202774-12.7014923,61.251358
	c-1.0549164,21.0545349,0.9249344,42.5574341,6.798111,63.2184753c1.0839233,5.29245,3.0848465,10.2768555,4.8941727,15.3538818
	c1.9003601,5.0340881,3.4246979,10.2792511,6.0118942,15.0203857l7.1343765,14.6054382
	c2.6269531,4.730011,5.6990814,9.1925354,8.5549774,13.8203735c5.4152756,9.5303955,12.8660431,17.4299316,19.5286102,26.0926208
	c7.0866852,8.2417603,15.1253357,15.5454712,22.7458344,23.3961182L168.4402771,318.2944641z M372.7870178,2.3387697
	c-3.3615112,172.26091-230.241806,352.0846863-230.241806,352.0846863h39.4940643
	C430.7674866,135.1056213,372.7870178,2.3387697,372.7870178,2.3387697z M264.0295715,347.5987244
	c-24.0956573,0-44.153717,17.4529724-48.0609589,40.4412537c-0.5210876,2.7354431-0.7814484,5.5357056-0.7814484,8.4011536
	c0,2.8654175,0.2603607,5.6656799,0.7814484,8.4007263c3.9072418,22.9887085,23.9653015,40.4416809,48.0609589,40.4416809
	c18.2996216,0,34.2548828-10.0292358,42.5904541-24.9423218l-15.5641479-10.6802979
	c-4.8842468,9.9640503-15.1738281,16.8670959-27.0263062,16.8670959c-13.675705,0-25.202652-9.1825867-28.7843475-21.6861572
	h76.9105072c0.5206909-2.7350464,0.7814331-5.5353088,0.7814331-8.4007263c0-2.865448-0.2607422-5.6657104-0.7814331-8.4011536
	C308.2481079,365.0516968,288.1904297,347.5987244,264.0295715,347.5987244z M235.245224,388.039978
	c3.5816956-12.50354,15.1086426-21.6857605,28.7843475-21.6857605c13.6757202,0,25.2678528,9.1822205,28.8495483,21.6857605
	H235.245224z M358.7185974,397.8084412l-19.5369873-43.3718872h-19.8624878l39.3994751,84.3346558l39.3346558-84.3346558h-19.797699
	L358.7185974,397.8084412z M411.6506653,438.7712097h18.6382751v-64.2857361c0,0,27.368103-6.4073792,27.368103-20.0620117
	l-46.0063782,0.013092V438.7712097z M532.8579712,354.436554v48.9728088c0,12.9594421-10.5499268,23.5093689-23.5093689,23.5093689
	s-23.5093994-10.5499268-23.5093994-23.5093689V354.436554h-15.1737976v49.1679688
	c0,12.4387512,5.9916077,23.5745544,15.1737976,30.6079712c6.5123291,5.0146179,14.717926,8.0100403,23.5093994,8.0100403
	c8.8566589,0,16.9970398-2.9954224,23.5093689-8.0752258v2.279541c0,12.9594727-10.5499268,23.574585-23.5093689,23.574585
	c-8.7262878,0-16.3459778-4.819458-20.383606-11.9176636l-12.1128235,9.4429626
	c6.9030457,10.6799011,18.8858948,17.7785034,32.4964294,17.7785034c21.2302551,0,38.6180115-17.3877869,38.6180115-38.683197
	V354.436554H532.8579712z"/>
</svg>
